<?xml version="1.0" encoding="utf-8"?>
<svg viewBox="111.473 234.387 291.177 63.4345" xmlns="http://www.w3.org/2000/svg" xmlns:bx="https://boxy-svg.com">
  <defs>
    <style bx:fonts="Roboto">@import url(https://fonts.googleapis.com/css2?family=Roboto%3Aital%2Cwght%400%2C100%3B0%2C300%3B0%2C400%3B0%2C500%3B0%2C700%3B0%2C900%3B1%2C100%3B1%2C300%3B1%2C400%3B1%2C500%3B1%2C700%3B1%2C900&amp;display=swap);</style>
    <style bx:fonts="Calistoga">@import url(https://fonts.googleapis.com/css2?family=Calistoga%3Aital%2Cwght%400%2C400&amp;display=swap);</style>
    <style bx:fonts="Abyssinica SIL">@import url(https://fonts.googleapis.com/css2?family=Abyssinica+SIL%3Aital%2Cwght%400%2C400&amp;display=swap);</style>
  </defs>
  <path class="cls-1" d="M 161.631 261.973 C 159.285 262.008 156.086 261.298 155.741 259.499 C 155.406 257.81 157.684 255.648 159.742 254.527 C 158.684 251.765 157.247 249.167 155.474 246.799 C 153.46 248.025 150.348 249.039 149.161 247.663 C 148.053 246.369 148.966 243.326 150.203 241.306 C 147.935 239.457 145.415 237.943 142.72 236.806 C 141.579 238.897 139.38 241.367 137.681 240.781 C 136.076 240.225 135.386 237.131 135.461 234.747 C 132.588 234.298 129.662 234.269 126.777 234.66 C 126.814 237.064 126.117 240.32 124.358 240.68 C 122.705 241.021 120.588 238.693 119.491 236.589 C 116.778 237.678 114.237 239.146 111.935 240.949 C 112.615 242.113 113.23 243.642 113.388 244.966 L 130.779 244.979 C 133.052 244.972 135.307 245.347 137.456 246.088 C 146.218 249.107 151.683 257.535 151.524 266.497 L 161.893 266.409 C 161.91 264.926 161.821 263.444 161.631 261.973 Z" style="fill: rgb(209, 7, 7);"/>
  <rect class="cls-1" x="91.876" y="56.35" width="0.225" height="0.016" style="fill: rgb(209, 7, 7);" transform="matrix(1, 0, 0, 1, 34.04048156738281, 230.7406768798828)"/>
  <path class="cls-1" d="M 126.147 287.886 L 126.147 287.921 L 126.147 287.886 Z" style="fill: rgb(209, 7, 7);"/>
  <path class="cls-1" d="M 150.338 266.155 C 150.338 266.277 150.338 266.395 150.338 266.515 L 149.156 266.515 C 149.156 266.376 149.156 266.237 149.156 266.1 C 149.156 256.489 141.851 248.543 132.338 247.185 C 131.922 247.126 130.291 246.84 127.735 246.773 C 124.449 246.685 119.633 246.845 113.918 247.092 L 116.754 246.084 C 140.149 246.07 128.528 246.115 128.83 246.115 C 140.707 246.124 150.338 255.093 150.338 266.155 Z" style="fill: rgb(209, 7, 7);"/>
  <path class="cls-4" d="M 128.828 286.181 L 113.079 286.103 L 115.925 285.079 L 129.439 285.221 C 130.407 285.221 131.377 285.153 132.336 285.016 C 141.715 283.678 148.943 275.933 149.153 266.518 L 150.335 266.518 C 150.128 277.409 140.579 286.181 128.828 286.181 Z" style="fill: rgb(104, 103, 103);"/>
  <path class="cls-4" d="M 161.893 266.416 C 161.883 267.893 161.77 269.37 161.556 270.829 C 159.226 270.749 156.186 271.456 155.641 273.089 C 155.069 274.826 157.49 277.07 159.522 278.234 C 158.418 280.975 156.934 283.546 155.116 285.876 C 153.137 284.616 150.158 283.675 148.889 284.817 C 147.543 286.028 148.536 289.202 149.74 291.263 C 147.436 293.063 144.891 294.529 142.178 295.621 C 141.083 293.518 138.965 291.185 137.308 291.53 C 135.551 291.888 134.856 295.151 134.889 297.549 C 132.004 297.939 129.081 297.91 126.205 297.464 C 126.287 295.084 125.592 291.98 123.987 291.428 C 122.289 290.844 120.089 293.313 118.945 295.402 C 116.254 294.265 113.739 292.75 111.473 290.905 C 112.155 289.793 112.642 288.574 112.907 287.299 L 130.777 287.232 C 139.428 287.259 147.512 281.688 150.43 272.86 C 151.114 270.81 151.479 268.664 151.52 266.504 L 161.893 266.416 Z" style="fill: rgb(104, 103, 103);"/>
  <text style="fill: rgb(51, 51, 51); font-family: Roboto; font-size: 28px; white-space: pre;" x="-31.431" y="-68.309"><tspan style="font-family: Calistoga; font-size: 33.2px; word-spacing: 0px;" x="165.9" y="277.003">Inge</tspan><tspan style="font-family: 'Abyssinica SIL'; font-size: 33.2px; word-spacing: 0px;">Industriales</tspan></text>
</svg>